<?xml version="1.0" standalone="no"?>
<!DOCTYPE svg PUBLIC "-//W3C//DTD SVG 20010904//EN"
 "http://www.w3.org/TR/2001/REC-SVG-20010904/DTD/svg10.dtd">
<svg version="1.0" xmlns="http://www.w3.org/2000/svg"
 width="75.000000pt" height="75.000000pt" viewBox="0 0 75.000000 75.000000"
 preserveAspectRatio="xMidYMid meet">
<metadata>
Created by potrace 1.14, written by Peter Selinger 2001-2017
</metadata>
<g transform="translate(0.000000,75.000000) scale(0.100000,-0.100000)"
fill="#000000" stroke="none">
<path d="M10 712 c-6 -2 -10 -125 -10 -340 l0 -337 77 1 78 0 0 339 0 338 -68
1 c-37 1 -72 0 -77 -2z"/>
<path d="M251 710 c-3 -3 -6 -155 -6 -338 0 -260 2 -332 12 -333 17 -1 109 -1
127 0 10 1 12 15 10 54 -2 28 -5 113 -7 187 l-5 135 64 -190 c35 -104 63 -190
64 -190 24 0 143 3 150 4 7 1 9 116 8 338 l-3 337 -60 1 c-33 0 -66 -1 -73 -3
-9 -3 -11 -39 -7 -156 3 -83 8 -161 10 -173 3 -13 2 -23 -3 -23 -4 0 -32 74
-61 164 -30 91 -57 170 -62 177 -7 12 -143 20 -158 9z"/>
<path d="M743 375 c0 -44 2 -61 4 -37 2 23 2 59 0 80 -2 20 -4 1 -4 -43z"/>
</g>
</svg>
