<svg xmlns="http://www.w3.org/2000/svg" viewBox="0 0 72.62 72.62"><defs><style>.cls-1{fill:#fff;}.cls-2{fill:#e7b962;}.cls-3{fill:#375a64;}</style></defs><title>trabajo en equipo e integridad</title><g id="Capa_2" data-name="Capa 2"><g id="Capa_1-2" data-name="Capa 1"><g id="Behavior"><circle class="cls-1" cx="36.31" cy="36.31" r="35.28"/><g id="Puzzle"><path class="cls-2" d="M38.36,8.28l13,13s-2.63,2.69-4.18,4.23c-2.48,2.46-1.15,5.25,2,6.54,1.67.57,2.87,2.34,1.61,3.53h0a2,2,0,0,1-1.82.34c-1.94-.69-1.22-2.2-3.1-4.08s-4.08-1-6,.94l-.92.92-2.49,2.49S33.72,33.5,33,32.76a8.72,8.72,0,0,1-1.41-1.54,1.84,1.84,0,0,1-.09-2A3.73,3.73,0,0,1,33,27.79c1.32-.85,1.84-.87,2.93-1.59a2,2,0,0,0,1-2.08,3.87,3.87,0,0,0-1.2-2.26,3.69,3.69,0,0,0-5.22,0c-1,.87-1.28,2.27-1.88,3.22-.41.64-.85,1.1-1.48,1.11s-1.11-.35-2.3-1.54l-3.42-3.41,13-13a2.76,2.76,0,0,1,1.72-.8h0A2.74,2.74,0,0,1,38.36,8.28Z"/><path class="cls-3" d="M20.25,52.74,7,39.49A3.19,3.19,0,0,1,7,35L20.25,21.76l4.36,4.33c1.8,1.69,3.3,1.79,4.72.31a6.17,6.17,0,0,0,1.33-2,3.76,3.76,0,0,1,2.19-2.31,2.06,2.06,0,0,1,2,.57h0a1.92,1.92,0,0,1,.61,1.84,3.46,3.46,0,0,1-2.35,2.36,5.91,5.91,0,0,0-2,1.31c-1.85,1.73-.82,3.45,0,4.32l1,1.08,3.68,3.69L32,41a4.13,4.13,0,0,1-2.13,1.34,2,2,0,0,1-1.63-.54A6.12,6.12,0,0,1,27,39.85a6.91,6.91,0,0,0-1.19-1.7,3.27,3.27,0,0,0-2.33-1h0a3.27,3.27,0,0,0-2.33,1A3.26,3.26,0,0,0,21.4,43a6,6,0,0,0,1.73,1.08,5.5,5.5,0,0,1,1.76,1.14,1.69,1.69,0,0,1,.5,1.66A5,5,0,0,1,23.94,49Zm0-29.86L7.56,35.57a2.39,2.39,0,0,0,0,3.35L20.25,51.61l3.13-3.13a4.42,4.42,0,0,0,1.24-1.75.91.91,0,0,0-.3-.91,4.7,4.7,0,0,0-1.53-1,6.81,6.81,0,0,1-1.93-1.21,4.32,4.32,0,0,1-1.49-3,4.25,4.25,0,0,1,1.2-3.08,4,4,0,0,1,2.91-1.21h0a4.05,4.05,0,0,1,2.9,1.2,7.9,7.9,0,0,1,1.34,1.91,5.29,5.29,0,0,0,1.1,1.66,1.14,1.14,0,0,0,.95.34,3.29,3.29,0,0,0,1.7-1.12l3.14-3.13-3.13-3.14s-1-1.09-1-1.09c-1.64-1.84-1.61-3.87.08-5.43a6.64,6.64,0,0,1,2.23-1.48,2.72,2.72,0,0,0,1.87-1.77,1.14,1.14,0,0,0-.36-1.1,1.29,1.29,0,0,0-1.23-.39,3,3,0,0,0-1.66,1.83A6.73,6.73,0,0,1,29.9,27c-1.19,1.24-3.18,2.21-5.84-.29l-.62-.59Z"/><path class="cls-2" d="M47.8,49.88l3.42,3.42-13,13a2.78,2.78,0,0,1-3.92,0l-13-13,3.42-3.39c1.14-1.13,2.14-2.39,2.11-3.62,0-1.08-.62-1.86-1.76-2.86s-2.32-1-3.15-1.92a1.83,1.83,0,0,1,1.12-3c1.73-.33,2.13,1.9,3,3.19s3.08,3.51,5.73,1.11l4.49-4.41h0l3.42,3.42a5.22,5.22,0,0,1,1.54,2.12,1.6,1.6,0,0,1-.56,1.5c-1.28,1.21-1.95,1.2-2.94,1.92-1.88,1.24-2.11,3-1.71,3.94a3.63,3.63,0,0,0,2,2,3.81,3.81,0,0,0,3.9-.93c1.53-1.72,1.94-3.47,2.86-3.91S46.32,48.4,47.8,49.88Z"/><path class="cls-3" d="M36.41,36.74l-4.12-4.11a6.12,6.12,0,0,1-1.06-1.21A2.24,2.24,0,0,1,31.15,29a3.92,3.92,0,0,1,1.58-1.49,14.42,14.42,0,0,1,1.71-.94,8.7,8.7,0,0,0,1.3-.71,1.63,1.63,0,0,0,.84-1.7,3.36,3.36,0,0,0-1.08-2,3.28,3.28,0,0,0-2.33-1h0a3.24,3.24,0,0,0-2.32,1,5.29,5.29,0,0,0-1.25,2A8.52,8.52,0,0,1,29,25.3a2.23,2.23,0,0,1-1.81,1.29c-.78.06-1.36-.42-2.59-1.65l-3.69-3.69L34.16,8a3.21,3.21,0,0,1,2-.92h.19A3.09,3.09,0,0,1,38.64,8L51.89,21.25l-.27.28S49,24.22,47.43,25.76a3.24,3.24,0,0,0-1.13,2.92,4.6,4.6,0,0,0,3,3A3.5,3.5,0,0,1,51.59,34a1.92,1.92,0,0,1-.6,1.86,2.35,2.35,0,0,1-2.24.43,3,3,0,0,1-1.91-2,5.86,5.86,0,0,0-1.35-2.14,2.81,2.81,0,0,0-2-.93h0A5.16,5.16,0,0,0,40.1,33ZM33.17,20.39a4.08,4.08,0,0,1,2.9,1.19,4.21,4.21,0,0,1,1.3,2.5,2.42,2.42,0,0,1-1.19,2.45,10.27,10.27,0,0,1-1.4.77,11.24,11.24,0,0,0-1.53.83l-.09.05a3.17,3.17,0,0,0-1.32,1.23A1.42,1.42,0,0,0,31.92,31a5.41,5.41,0,0,0,.93,1l3.56,3.55,3.12-3.13a5.82,5.82,0,0,1,3.93-2.1h0a3.59,3.59,0,0,1,2.57,1.16,6.72,6.72,0,0,1,1.52,2.39c.33.8.53,1.27,1.43,1.59a1.62,1.62,0,0,0,1.42-.24,1.17,1.17,0,0,0,.38-1.13A2.76,2.76,0,0,0,49,32.4a5.26,5.26,0,0,1-3.45-3.57,3.91,3.91,0,0,1,1.35-3.63c1.24-1.24,3.19-3.22,3.9-3.95L38.09,8.57a2.36,2.36,0,0,0-1.89-.69h-.08a2.34,2.34,0,0,0-1.39.67L22,21.25l3.14,3.13c1.2,1.21,1.53,1.41,2,1.42s.74-.28,1.14-.92a8.89,8.89,0,0,0,.53-1.07,6,6,0,0,1,1.43-2.25,4,4,0,0,1,2.87-1.17Z"/><path class="cls-3" d="M36.3,67.47a3.13,3.13,0,0,1-2.25-.93L20.81,53.27,24.5,49.6c1.37-1.34,2-2.43,2-3.33s-.44-1.53-1.62-2.57a6.26,6.26,0,0,0-1.58-.94,5,5,0,0,1-1.6-1,2.24,2.24,0,0,1-.43-2.18A2.21,2.21,0,0,1,23,38.09c1.59-.31,2.27,1.13,2.82,2.29a8.87,8.87,0,0,0,.56,1.07,4.21,4.21,0,0,0,2.68,2,3.07,3.07,0,0,0,2.44-.94l4.77-4.68L40,41.5a5.42,5.42,0,0,1,1.64,2.34A2,2,0,0,1,41,45.7a7.45,7.45,0,0,1-2,1.37,6.23,6.23,0,0,0-1,.58c-1.61,1.07-1.94,2.55-1.57,3.47a3.26,3.26,0,0,0,1.8,1.82,3.4,3.4,0,0,0,3.46-.83,12.72,12.72,0,0,0,1.55-2.26,3.92,3.92,0,0,1,1.43-1.74c1.19-.57,2,0,3.44,1.49l3.69,3.7L38.54,66.55a3.2,3.2,0,0,1-2.24.92ZM21.94,53.27,34.62,66a2.31,2.31,0,0,0,1.68.69h0A2.34,2.34,0,0,0,38,66L50.66,53.3l-3.14-3.13C46,48.64,45.64,48.52,45,48.82a3.64,3.64,0,0,0-1.09,1.43,12.77,12.77,0,0,1-1.65,2.39,4.16,4.16,0,0,1-4.33,1,4.09,4.09,0,0,1-2.26-2.27c-.49-1.21-.12-3.11,1.86-4.43a8.73,8.73,0,0,1,1.09-.64,6.61,6.61,0,0,0,1.8-1.23A1.18,1.18,0,0,0,40.85,44c0-.23-.28-.78-1.42-1.92l-3.14-3.14-4.22,4.14A3.83,3.83,0,0,1,29,44.22a5.05,5.05,0,0,1-3.25-2.34,9.81,9.81,0,0,1-.62-1.16c-.59-1.27-1-2-1.94-1.85a1.37,1.37,0,0,0-1.15,1,1.43,1.43,0,0,0,.25,1.37,4,4,0,0,0,1.35.84,6.82,6.82,0,0,1,1.78,1.06c1.15,1,1.87,1.9,1.89,3.15,0,1.51-1.26,3-2.24,3.92Z"/><path class="cls-3" d="M52.38,52.71l-3.61-3.6c-2.52-2.53-3.66-2.34-5.41-.93a6,6,0,0,0-1.51,2.1c-.53,1-1.07,2.06-2.5,2.07a2.12,2.12,0,0,1-2-1.28,2.28,2.28,0,0,1,.59-2.52,5.89,5.89,0,0,1,1.94-1.17A5.09,5.09,0,0,0,42,46.05c1.18-1.43.8-3-1.2-5-3.71-3.7-3.71-3.7-3.55-4l.07-.08c1.06-1.05,4.56-4.48,5-4.73a1.7,1.7,0,0,1,1.39-.17c1,.36,1.53,1.35,2.06,2.4.71,1.38,1.37,2.69,3.23,2.83a3.29,3.29,0,0,0,2.65-5.61,8,8,0,0,0-2.25-1.48c-1-.52-2-1-2.15-1.93-.11-.77.38-1.64,1.61-2.83l3.69-3.68L65.63,35a3.18,3.18,0,0,1,0,4.48Zm-6.85-6.35c1.07,0,2.25.63,3.81,2.18l3,3L65.06,38.89a2.36,2.36,0,0,0,0-3.35L52.47,23l-3.13,3.13c-1,1-1.45,1.67-1.38,2.14s.84.9,1.72,1.34a8.6,8.6,0,0,1,2.46,1.64,4.09,4.09,0,0,1,0,5.78,4.1,4.1,0,0,1-3.28,1.18c-2.3-.18-3.17-1.89-3.87-3.27-.48-.94-.89-1.75-1.62-2a.93.93,0,0,0-.69.08c-.31.2-2.84,2.66-4.56,4.35l3.2,3.19c.85.84,3.46,3.4,1.25,6.05a5.93,5.93,0,0,1-2.38,1.56,5.28,5.28,0,0,0-1.7,1,1.5,1.5,0,0,0-.41,1.66,1.34,1.34,0,0,0,1.27.79c.91,0,1.24-.57,1.8-1.65a6.87,6.87,0,0,1,1.72-2.35A4.37,4.37,0,0,1,45.53,46.36Z"/></g><path class="cls-2" d="M36.31,72.62A36.31,36.31,0,1,1,72.62,36.31,36.35,36.35,0,0,1,36.31,72.62Zm0-70.56A34.26,34.26,0,1,0,70.57,36.31,34.28,34.28,0,0,0,36.31,2.06Z"/></g></g></g></svg>