<svg xmlns="http://www.w3.org/2000/svg" viewBox="0 0 381.63 336.15"><defs><style>.cls-1,.cls-2,.cls-3{fill:none;stroke-miterlimit:10;}.cls-1,.cls-3{stroke:#020202;}.cls-1,.cls-2{stroke-width:7px;}.cls-2{stroke:#0c0c0c;}.cls-3{stroke-width:6px;}</style></defs><title>colocaciones_1</title><g id="Capa_2" data-name="Capa 2"><g id="Capa_1-2" data-name="Capa 1"><path class="cls-1" d="M183.61,105,7.61,281s-12,13,5,28,24,32,43,19l177-176Z"/><path class="cls-2" d="M160.11,24.53a86.69,86.69,0,0,0-21-1,71.47,71.47,0,0,1,13.63-9.63,80.25,80.25,0,0,1,19.37-7.37,80.86,80.86,0,0,1,23-3c10,.29,18.15,2.86,28,7a226.3,226.3,0,0,1,52,30L311.61,68a35.16,35.16,0,0,0,0,21c1.11,3.43,3.26,10.09,9.61,14.43,10.3,7.05,23,2.12,24.39,1.57l31,28-65,68-30-29a27.53,27.53,0,0,0,1.66-19.41c-3.44-11.69-13.65-16.42-15.16-17.09-2.13-.89-9.15-3.49-16.5-.5a19.06,19.06,0,0,0-5,3l-49-48a28.33,28.33,0,0,0,11-13,28.85,28.85,0,0,0,1-18c-3.33-14.35-17.06-21.86-23.5-25.5a77.46,77.46,0,0,0-11-5A84.62,84.62,0,0,0,160.11,24.53Z"/><line class="cls-3" x1="305.87" y1="330.18" x2="350.87" y2="330.18"/><line class="cls-3" x1="328.37" y1="296.68" x2="328.37" y2="330.68"/><path class="cls-3" d="M363.37,295.68h-74c3.75-9.11,16.84-38.58,36-40a18.88,18.88,0,0,1,3,0C347.55,257.13,360,286.84,363.37,295.68Z"/></g></g></svg>