<svg xmlns="http://www.w3.org/2000/svg" viewBox="0 0 201.35 175.86"><defs><style>.cls-1,.cls-2,.cls-3{fill:none;stroke-miterlimit:10;}.cls-1,.cls-3{stroke:#020202;}.cls-1,.cls-2{stroke-width:8px;}.cls-2{stroke:#0c0c0c;}.cls-3{stroke-width:7px;}</style></defs><title>martillo new</title><g id="Capa_2" data-name="Capa 2"><g id="Capa_1-2" data-name="Capa 1"><path class="cls-1" d="M93.12,59.24,6,146.32S.1,152.75,8.51,160.17s11.87,15.84,21.27,9.4l87.58-87.08Z"/><path class="cls-2" d="M88.49,14.4a43.06,43.06,0,0,0-10.39-.49,35.37,35.37,0,0,1,6.74-4.76A39.25,39.25,0,0,1,94.43,5.5,40,40,0,0,1,105.81,4c4.94.15,9,1.42,13.85,3.47a112.11,112.11,0,0,1,25.73,14.84l18.06,13.61a17.38,17.38,0,0,0,0,10.39,12.88,12.88,0,0,0,4.76,7.14c5.09,3.49,11.38,1,12.06.78l15.34,13.85-32.16,33.64L148.61,87.39a13.68,13.68,0,0,0,.82-9.61,13.92,13.92,0,0,0-7.5-8.45,11,11,0,0,0-8.17-.25,9.38,9.38,0,0,0-2.47,1.48L107,46.81a14,14,0,0,0,5.45-6.43,14.27,14.27,0,0,0,.49-8.91c-1.65-7.1-8.44-10.81-11.63-12.61a39.8,39.8,0,0,0-5.44-2.48A42.89,42.89,0,0,0,88.49,14.4Z"/><line class="cls-3" x1="160.61" y1="165.64" x2="182.88" y2="165.64"/><line class="cls-3" x1="171.74" y1="149.06" x2="171.74" y2="165.88"/><path class="cls-3" d="M189.06,148.57H152.45c1.85-4.51,8.33-19.09,17.81-19.8a11.46,11.46,0,0,1,1.48,0C181.23,129.49,187.37,144.19,189.06,148.57Z"/></g></g></svg>