<svg xmlns="http://www.w3.org/2000/svg" viewBox="0 0 52 51.5"><defs><style>.cls-1{fill:none;stroke:#050505;stroke-miterlimit:10;}.cls-2{fill:#070707;}.cls-3{fill:#050505;}</style></defs><title>pulido e hidro</title><g id="Capa_2" data-name="Capa 2"><g id="Capa_1-2" data-name="Capa 1"><polyline class="cls-1" points="0.5 0.5 51.5 0.5 51.5 50.5 38.5 50.5"/><polyline class="cls-1" points="31.5 50.5 0.5 50.5 0.5 0.5"/><line class="cls-1" x1="35" x2="35" y2="13"/><line class="cls-1" x1="1" y1="13" x2="51" y2="13"/><line class="cls-1" x1="1" y1="26" x2="51" y2="26"/><line class="cls-1" x1="1" y1="38" x2="51" y2="38"/><line class="cls-1" x1="17" y1="26" x2="17" y2="13"/><line class="cls-1" x1="17" y1="38" x2="17" y2="50"/><line class="cls-1" x1="35" y1="26" x2="35" y2="38"/><circle class="cls-2" cx="30" cy="7.1" r="1.5"/><circle class="cls-2" cx="22" cy="20" r="1.5"/><circle class="cls-2" cx="30" cy="32" r="1.5"/><circle class="cls-2" cx="22" cy="44" r="1.5"/><circle class="cls-2" cx="35" cy="50" r="1.5"/><circle class="cls-2" cx="12" cy="44" r="1.5"/><circle class="cls-2" cx="40" cy="32" r="1.5"/><circle class="cls-2" cx="12" cy="20" r="1.5"/><circle class="cls-2" cx="40" cy="7.1" r="1.5"/><rect class="cls-3" width="1" height="1"/></g></g></svg>