<svg xmlns="http://www.w3.org/2000/svg" viewBox="0 0 99 98"><defs><style>.cls-1{fill:none;stroke:#020202;stroke-miterlimit:10;stroke-width:2px;}</style></defs><title>reves 2</title><g id="Capa_2" data-name="Capa 2"><g id="Capa_1-2" data-name="Capa 1"><rect class="cls-1" x="1" y="1" width="97" height="96"/><line class="cls-1" x1="13.5" y1="0.5" x2="13.5" y2="96.5"/><line class="cls-1" x1="26.5" y1="0.5" x2="26.5" y2="96.5"/><line class="cls-1" x1="37.5" y1="1.5" x2="37.5" y2="96.5"/><line class="cls-1" x1="49.5" y1="0.5" x2="49.5" y2="96.5"/><line class="cls-1" x1="61.5" y1="0.5" x2="61.5" y2="96.5"/><line class="cls-1" x1="73.5" y1="0.5" x2="73.5" y2="96.5"/><line class="cls-1" x1="85.5" y1="0.5" x2="85.5" y2="97.5"/><line class="cls-1" x1="13.5" y1="16.5" x2="26.5" y2="16.5"/><line class="cls-1" x1="37.5" y1="16.5" x2="49.5" y2="16.5"/><line class="cls-1" x1="61.5" y1="16.5" x2="73.5" y2="16.5"/><line class="cls-1" x1="85.5" y1="16.5" x2="98.5" y2="16.5"/><line class="cls-1" x1="0.5" y1="32.5" x2="13.5" y2="32.5"/><line class="cls-1" x1="26.5" y1="32.5" x2="37.5" y2="32.5"/><line class="cls-1" x1="49.5" y1="32.5" x2="61.5" y2="32.5"/><line class="cls-1" x1="73.5" y1="32.5" x2="85.5" y2="32.5"/><line class="cls-1" x1="13.5" y1="48.5" x2="26.5" y2="48.5"/><line class="cls-1" x1="37.5" y1="48.5" x2="49.5" y2="48.5"/><line class="cls-1" x1="61.5" y1="47.5" x2="73.5" y2="47.5"/><line class="cls-1" x1="85.5" y1="47.5" x2="97.5" y2="47.5"/><line class="cls-1" x1="1.5" y1="64.5" x2="13.5" y2="64.5"/><line class="cls-1" x1="26.5" y1="64.5" x2="37.5" y2="64.5"/><line class="cls-1" x1="49.5" y1="64.5" x2="61.5" y2="64.5"/><line class="cls-1" x1="73.5" y1="64.5" x2="85.5" y2="64.5"/><line class="cls-1" x1="13.5" y1="79.5" x2="26.5" y2="79.5"/><line class="cls-1" x1="37.5" y1="80.5" x2="49.5" y2="80.5"/><line class="cls-1" x1="61.5" y1="79.5" x2="73.5" y2="79.5"/><line class="cls-1" x1="85.5" y1="80.5" x2="98.5" y2="80.5"/></g></g></svg>